
<!-- Creator: CorelDRAW X5 -->
<svg xmlns="http://www.w3.org/2000/svg" xml:space="preserve" width="50.7998mm" height="9.8212mm" style="shape-rendering:geometricPrecision; text-rendering:geometricPrecision; image-rendering:optimizeQuality; fill-rule:evenodd; clip-rule:evenodd"
viewBox="0 0 5080 982"
 xmlns:xlink="http://www.w3.org/1999/xlink"
 xmlns:svg="http://www.w3.org/2000/svg">
 <defs>
  <style type="text/css">
   <![CDATA[
    .fil0 {fill:#FFFFFF;fill-rule:nonzero}
   ]]>
  </style>
 </defs>
 <g id="Layer_x0020_1">
  <metadata id="CorelCorpID_0Corel-Layer"/>
 </g>
 <g id="svg891">
  <metadata id="CorelCorpID_1Corel-Layer"/>
  <path class="fil0" d="M1076 82c-82,-38 -170,-66 -262,-82 -11,20 -24,48 -34,70 -98,-15 -194,-15 -290,0 -9,-22 -23,-49 -34,-70 -92,16 -180,44 -262,83 -166,251 -211,495 -188,736 110,82 217,132 321,165 26,-36 49,-73 69,-113 -38,-14 -74,-32 -108,-53 9,-7 18,-14 27,-21 209,98 436,98 642,0 9,7 18,14 27,21 -34,21 -71,38 -109,53 20,40 43,78 69,113 105,-33 212,-83 321,-165 26,-279 -45,-521 -189,-736zm-652 588l0 0c-63,0 -114,-59 -114,-130 0,-71 50,-130 114,-130 64,0 115,59 114,130 0,71 -50,130 -114,130zm422 0l0 0c-63,0 -114,-59 -114,-130 0,-71 50,-130 114,-130 64,0 115,59 114,130 0,71 -50,130 -114,130z"/>
  <path class="fil0" d="M1706 250l273 0c66,0 121,11 167,31 45,21 79,50 102,87 23,37 34,80 34,128 0,47 -12,90 -35,128 -24,38 -59,69 -108,91 -48,22 -108,34 -179,34l-253 0 0 -500zm250 373l0 0c44,0 78,-11 102,-34 24,-23 36,-53 36,-93 0,-36 -11,-65 -32,-87 -21,-22 -53,-33 -96,-33l-85 0 0 246 75 0z"/>
  <path class="fil0" d="M2690 749c-38,-10 -72,-24 -102,-44l0 -119c23,18 54,33 92,45 38,12 76,17 112,17 17,0 29,-2 38,-7 9,-4 13,-10 13,-16 0,-7 -2,-13 -7,-18 -5,-5 -14,-9 -27,-12l-84 -19c-48,-11 -82,-27 -102,-48 -20,-20 -30,-47 -30,-80 0,-28 9,-52 27,-72 18,-21 43,-36 75,-47 33,-11 71,-17 115,-17 39,0 75,4 108,13 33,9 60,19 81,33l0 112c-22,-13 -47,-24 -76,-32 -29,-8 -58,-12 -88,-12 -44,0 -66,8 -66,23 0,7 3,12 10,16 7,4 19,7 37,11l70 13c46,8 80,22 102,42 22,20 34,50 34,90 0,43 -18,78 -56,103 -37,26 -90,38 -158,38 -40,0 -79,-5 -117,-15l0 0z"/>
  <path class="fil0" d="M3185 734c-40,-20 -70,-47 -90,-81 -20,-34 -30,-73 -30,-116 0,-43 10,-81 31,-115 21,-34 52,-60 92,-80 41,-19 89,-29 145,-29 70,0 128,15 174,45l0 131c-16,-11 -35,-21 -57,-28 -22,-7 -45,-11 -70,-11 -43,0 -77,8 -102,24 -24,16 -37,37 -37,64 0,26 12,47 36,63 24,16 58,25 103,25 23,0 46,-3 69,-10 23,-7 42,-15 58,-25l0 126c-51,31 -111,47 -178,47 -57,0 -105,-10 -146,-30z"/>
  <path class="fil0" d="M3682 734c-40,-20 -71,-47 -92,-82 -21,-35 -32,-74 -32,-116 0,-43 11,-81 32,-115 21,-34 52,-60 92,-79 40,-19 88,-29 143,-29 55,0 103,9 143,29 40,19 71,45 92,79 21,33 31,72 31,115 0,43 -10,82 -31,116 -21,35 -52,62 -92,82 -40,20 -88,30 -143,30 -55,0 -103,-10 -143,-30l0 0zm212 -127l0 0c17,-17 26,-40 26,-69 0,-29 -8,-51 -26,-68 -17,-17 -40,-25 -70,-25 -30,0 -53,8 -70,25 -17,17 -25,40 -25,68 0,29 9,52 25,69 17,17 40,26 70,26 29,0 53,-9 70,-26z"/>
  <path class="fil0" d="M4511 340l0 154c-18,-12 -41,-18 -69,-18 -37,0 -66,12 -86,35 -20,23 -30,59 -30,108l0 131 -171 0 0 -418 168 0 0 133c9,-49 24,-84 45,-108 21,-23 47,-35 80,-35 25,0 46,6 64,17z"/>
  <path class="fil0" d="M5080 236l0 514 -171 0 0 -94c-14,35 -36,62 -66,80 -30,18 -66,27 -109,27 -39,0 -72,-10 -101,-29 -29,-19 -51,-46 -67,-79 -16,-34 -23,-72 -23,-114 0,-44 8,-83 25,-118 17,-35 41,-62 72,-81 31,-19 66,-29 106,-29 82,0 136,36 164,109l0 -186 171 0zm-197 369l0 0c17,-17 26,-40 26,-67 0,-27 -8,-48 -25,-65 -17,-17 -40,-25 -70,-25 -29,0 -52,8 -69,25 -17,17 -26,39 -26,66 0,27 9,49 26,66 17,17 40,26 69,26 29,0 52,-9 70,-26l0 0z"/>
  <path class="fil0" d="M2426 377c47,0 85,-35 85,-78 0,-43 -38,-78 -85,-78 -47,0 -85,35 -85,78 0,43 38,78 85,78z"/>
  <path class="fil0" d="M2341 431c52,23 117,24 171,0l0 322 -171 0 0 -322z"/>
 </g>
</svg>
